<svg width="20" height="25" viewBox="0 0 20 25" fill="none" xmlns="http://www.w3.org/2000/svg">
<g filter="url(#filter0_d_328_11)">
<path d="M9.83337 7.16683C8.91671 7.16683 8.16671 7.91683 8.16671 8.8335C8.16671 9.75017 8.91671 10.5002 9.83337 10.5002C10.75 10.5002 11.5 9.75017 11.5 8.8335C11.5 7.91683 10.75 7.16683 9.83337 7.16683ZM9.83337 3.00017C12.5584 3.00017 15.6667 5.05017 15.6667 8.9585C15.6667 11.4418 13.8917 14.0585 10.3417 16.7835C10.0417 17.0168 9.62504 17.0168 9.32504 16.7835C5.77504 14.0502 4.00004 11.4418 4.00004 8.9585C4.00004 5.05017 7.10837 3.00017 9.83337 3.00017Z" fill="#9D99E4"/>
</g>
<defs>
<filter id="filter0_d_328_11" x="-4" y="0" width="28" height="28" filterUnits="userSpaceOnUse" color-interpolation-filters="sRGB">
<feFlood flood-opacity="0" result="BackgroundImageFix"/>
<feColorMatrix in="SourceAlpha" type="matrix" values="0 0 0 0 0 0 0 0 0 0 0 0 0 0 0 0 0 0 127 0" result="hardAlpha"/>
<feOffset dy="4"/>
<feGaussianBlur stdDeviation="2"/>
<feComposite in2="hardAlpha" operator="out"/>
<feColorMatrix type="matrix" values="0 0 0 0 0 0 0 0 0 0 0 0 0 0 0 0 0 0 0.25 0"/>
<feBlend mode="normal" in2="BackgroundImageFix" result="effect1_dropShadow_328_11"/>
<feBlend mode="normal" in="SourceGraphic" in2="effect1_dropShadow_328_11" result="shape"/>
</filter>
</defs>
</svg>
